M48
; DRILL file KiCad 10.0.5 date 2026-09-19T00:13:16
; FORMAT={-:-/ absolute / metric / decimal}
; #@! TF.CreationDate,2026-09-19T00:13:16+03:00
; #@! TF.GenerationSoftware,Kicad,Pcbnew,10.0.5
; #@! TF.FileFunction,Plated,1,4,PTH
FMAT,2
METRIC
; #@! TA.AperFunction,Plated,PTH,ComponentDrill
T1C0.200
; #@! TA.AperFunction,Plated,PTH,ViaDrill
T2C0.300
; #@! TA.AperFunction,Plated,PTH,ViaDrill
T3C0.400
; #@! TA.AperFunction,Plated,PTH,ComponentDrill
T4C0.500
; #@! TA.AperFunction,Plated,PTH,ComponentDrill
T5C0.750
; #@! TA.AperFunction,Plated,PTH,ComponentDrill
T6C1.000
%
G90
G05
T1
X163.2Y-93.4
X163.2Y-94.85
X163.2Y-96.3
X164.65Y-93.4
X164.65Y-94.85
X164.65Y-96.3
X166.1Y-93.4
X166.1Y-94.85
X166.1Y-96.3
T2
X130.5Y-84.0
X130.5Y-85.0
X131.0Y-112.0
X135.0Y-91.5
X135.5Y-87.5
X136.5Y-86.0
X137.0Y-101.5
X137.1Y-95.0
X139.0Y-78.5
X140.012Y-101.512
X141.0Y-105.0
X142.5Y-87.0
X143.0Y-91.5
X143.5Y-96.5
X143.5Y-113.0
X144.463Y-113.25
X145.0Y-105.0
X145.5Y-98.0
X146.5Y-103.5
X149.0Y-109.5
X149.0Y-111.0
X149.5Y-82.5
X150.0Y-84.0
X150.5Y-102.0
X151.5Y-84.0
X152.5Y-97.5
X152.5Y-100.5
X152.5Y-112.5
X153.0Y-93.0
X153.5Y-99.0
X153.5Y-102.0
X154.6Y-93.0
X155.5Y-94.5
X156.0Y-96.0
X157.0Y-106.5
X157.463Y-84.963
X158.0Y-86.5
X158.5Y-99.5
X158.5Y-102.0
X158.5Y-114.5
X159.0Y-97.0
X159.5Y-110.5
X160.0Y-81.0
X160.5Y-98.4
X160.5Y-111.0
X160.5Y-115.5
X161.1Y-103.089
X161.1Y-103.9
X161.1Y-106.061
X162.0Y-115.5
X162.5Y-85.5
X164.0Y-77.5
X164.0Y-84.5
X168.0Y-90.5
X172.0Y-113.5
X174.0Y-106.5
X174.0Y-108.0
X174.5Y-99.5
X174.5Y-101.5
X174.5Y-105.0
X175.0Y-95.5
T3
X136.0Y-114.0
X138.0Y-87.5
X138.0Y-92.5
X142.0Y-93.5
X167.0Y-80.263
X167.0Y-86.0
X169.55Y-94.05
X169.972Y-92.75
T5
X132.0Y-88.5
X132.0Y-90.5
X132.0Y-92.5
X132.0Y-94.5
X132.0Y-96.5
X132.0Y-98.5
X132.0Y-100.5
X132.0Y-102.5
T6
X129.96Y-79.0
X130.96Y-108.612
X132.5Y-79.0
X135.04Y-79.0
X136.04Y-108.612
X145.735Y-101.0
X148.275Y-101.0
X153.0Y-105.42
X153.0Y-107.96
X153.0Y-110.5
T4
G00X169.172Y-77.92
M15
G01X170.322Y-77.92
M16
G05
G00X169.172Y-89.08
M15
G01X170.322Y-89.08
M16
G05
G00X173.812Y-77.92
M15
G01X174.963Y-77.92
M16
G05
G00X173.812Y-89.08
M15
G01X174.963Y-89.08
M16
G05
M30
