M48
; DRILL file KiCad 10.0.5 date 2026-09-18T23:59:59
; FORMAT={-:-/ absolute / metric / decimal}
; #@! TF.CreationDate,2026-09-18T23:59:59+03:00
; #@! TF.GenerationSoftware,Kicad,Pcbnew,10.0.5
; #@! TF.FileFunction,Plated,1,4,PTH
FMAT,2
METRIC
; #@! TA.AperFunction,Plated,PTH,ComponentDrill
T1C0.200
; #@! TA.AperFunction,Plated,PTH,ViaDrill
T2C0.300
; #@! TA.AperFunction,Plated,PTH,ViaDrill
T3C0.400
; #@! TA.AperFunction,Plated,PTH,ComponentDrill
T4C0.500
; #@! TA.AperFunction,Plated,PTH,ComponentDrill
T5C0.750
; #@! TA.AperFunction,Plated,PTH,ComponentDrill
T6C0.900
; #@! TA.AperFunction,Plated,PTH,ComponentDrill
T7C1.000
%
G90
G05
T1
X156.55Y-93.55
X156.55Y-95.0
X156.55Y-96.45
X158.0Y-93.55
X158.0Y-95.0
X158.0Y-96.45
X159.45Y-93.55
X159.45Y-95.0
X159.45Y-96.45
T2
X130.5Y-112.0
X130.525Y-113.025
X130.637Y-83.0
X131.5Y-90.5
X132.0Y-101.0
X132.0Y-104.5
X133.0Y-100.6
X133.338Y-83.629
X134.0Y-95.5
X135.5Y-109.0
X135.9Y-104.3
X136.167Y-98.102
X136.5Y-92.0
X137.5Y-109.0
X138.0Y-101.5
X138.5Y-107.5
X139.5Y-93.5
X141.0Y-84.5
X142.0Y-76.5
X142.5Y-91.6
X142.5Y-92.5
X146.326Y-89.674
X149.5Y-76.5
X151.0Y-107.0
X152.0Y-89.5
X152.5Y-84.0
X158.0Y-81.0
X158.0Y-102.5
X158.5Y-84.1
X159.5Y-84.1
X161.5Y-76.5
X161.5Y-107.5
X162.5Y-90.95
X162.5Y-107.5
X163.0Y-83.5
X163.0Y-107.0
X164.0Y-86.0
X164.5Y-99.5
X165.0Y-85.5
X165.0Y-97.0
X165.0Y-113.5
X167.949Y-78.29
X168.0Y-83.5
X169.5Y-91.0
X169.5Y-93.0
X169.5Y-95.0
X169.5Y-97.0
X170.0Y-89.0
X174.0Y-98.0
X175.5Y-107.5
X175.5Y-110.0
X175.5Y-111.5
T3
X131.5Y-96.0
X135.8Y-108.0
X137.5Y-104.0
X138.5Y-96.5
X139.5Y-79.5
X142.0Y-90.0
X155.548Y-94.499
X156.5Y-82.5
X163.0Y-94.0
T5
X128.55Y-90.5
X128.55Y-92.5
X128.55Y-94.5
X128.55Y-96.5
X128.55Y-98.5
X128.55Y-100.5
X128.55Y-102.5
X128.55Y-104.5
X143.0Y-95.5
X145.0Y-95.5
X147.0Y-95.5
T6
X141.46Y-100.96
X141.46Y-106.04
X146.54Y-100.96
X146.54Y-106.04
T7
X128.5Y-109.225
X128.5Y-111.765
X133.46Y-77.0
X136.0Y-77.0
X138.54Y-77.0
X153.0Y-101.5
X153.0Y-104.04
X153.0Y-106.58
T4
G00X169.672Y-75.42
M15
G01X170.822Y-75.42
M16
G05
G00X169.672Y-86.58
M15
G01X170.822Y-86.58
M16
G05
G00X174.312Y-75.42
M15
G01X175.463Y-75.42
M16
G05
G00X174.312Y-86.58
M15
G01X175.463Y-86.58
M16
G05
M30
